<?xml version="1.0" encoding="UTF-8"?>
<svg width="100pt" height="100pt" version="1.1" viewBox="0 0 100 100" xmlns="http://www.w3.org/2000/svg" fill="#BEBEBE">
 <path d="m81.398 13.602l-29.297 29.297c-1.1992 1.1992-3.1016 1.1992-4.1992 0l-29.301-29.297c-1.1992-1.1992-3.1016-1.1992-4.1992 0-1.1992 1.1992-1.1992 3.1016 0 4.1992l29.301 29.301c1.1992 1.1992 1.1992 3.1016 0 4.1992l-29.402 29.398c-1.1992 1.1992-1.1992 3.1016 0 4.1992 1.1992 1.1992 3.1016 1.1992 4.1992 0l29.301-29.301c1.1992-1.1992 3.1016-1.1992 4.1992 0l29.398 29.402c1.1992 1.1992 3.1016 1.1992 4.1992 0 1.1992-1.1992 1.1992-3.1016 0-4.1992l-29.199-29.402c-1.1992-1.1992-1.1992-3.1016 0-4.1992l29.301-29.301c1.1992-1.1992 1.1992-3.1016 0-4.1992-1.1992-1.1992-3.0977-1.1992-4.3008-0.097657z"/>
</svg>
